<?xml version="1.0" standalone="no"?>
<!DOCTYPE svg PUBLIC "-//W3C//DTD SVG 20010904//EN"
 "http://www.w3.org/TR/2001/REC-SVG-20010904/DTD/svg10.dtd">
<svg version="1.0" xmlns="http://www.w3.org/2000/svg"
 width="458.000000pt" height="344.000000pt" viewBox="0 0 458.000000 344.000000"
 preserveAspectRatio="xMidYMid meet">

<g transform="translate(0.000000,344.000000) scale(0.100000,-0.100000)"
fill="#000000" stroke="none">
<path d="M221 3163 c7 -10 24 -31 36 -46 l23 -29 0 -1391 -1 -1392 -23 -95
c-13 -52 -22 -97 -21 -98 3 -3 479 361 509 388 5 5 -1 24 -13 43 -21 34 -21
40 -21 611 0 464 3 577 13 574 7 -2 65 -32 130 -68 l117 -64 0 -458 c0 -252 2
-458 5 -458 5 0 439 333 463 355 12 10 11 18 -2 43 -14 27 -16 79 -16 359 l0
329 -72 38 c-40 22 -95 51 -123 66 -27 15 -83 44 -122 66 -40 21 -73 41 -73
44 0 4 87 56 193 117 l192 111 3 486 2 486 -220 0 -220 0 -2 -402 -3 -402
-132 -77 c-72 -42 -134 -74 -137 -71 -3 3 -6 218 -6 479 l0 473 -246 0 c-233
0 -246 -1 -233 -17z"/>
<path d="M1750 3104 l-60 -76 2 -436 3 -437 348 -198 347 -198 0 -231 0 -230
-62 52 c-207 173 -197 162 -197 203 l-1 37 -220 0 -220 0 1 -197 0 -198 269
-213 270 -212 217 147 c120 82 262 177 315 213 l97 65 -2 395 -2 395 -360 190
-360 190 -3 188 -2 187 129 0 130 0 3 -67 3 -68 233 -3 232 -2 0 201 0 201
-71 89 -71 89 -454 0 -454 0 -60 -76z"/>
<path d="M3139 3129 l41 -52 0 -981 0 -982 583 -466 c320 -256 583 -465 585
-463 2 2 -4 17 -12 34 -14 26 -16 111 -16 711 l0 680 -230 0 -230 0 -2 -189
-3 -189 -127 100 -128 99 0 827 0 827 35 44 c19 24 35 45 35 47 0 2 -129 4
-286 4 l-286 0 41 -51z"/>
</g>
</svg>
